0.16m3min_grf.mot
version=1
nRows=27
nColumns 19
inDegrees=yes
endheader
time	1_ground_force_vx	1_ground_force_vy	1_ground_force_vz	1_ground_force_px	1_ground_force_py	1_ground_force_pz	1_ground_torque_x	1_ground_torque_y	1_ground_torque_z	2_ground_force_vx	2_ground_force_vy	2_ground_force_vz	2_ground_force_px	2_ground_force_py	2_ground_force_pz	2_ground_torque_x	2_ground_torque_y	2_ground_torque_z
            2.502500	            1.094660	            4.334846	           -1.910128	           -0.233013	            0.005581	           -0.255695	            0.323182	           -0.082126	           -0.085982	            0.048988	           -0.553447	            0.326506	           -0.232311	            0.006130	           -0.833667	            0.018642	            0.028762	           -0.094158
            2.503000	            0.773433	            4.875974	           -1.998724	           -0.233013	            0.005581	           -0.255695	            0.270433	           -0.036150	           -0.080558	            0.141255	           -0.183976	            0.093139	           -0.232311	            0.006130	           -0.833667	           -0.131556	            0.009180	           -0.056461
            2.503500	            0.957410	            3.433295	           -1.867795	           -0.233013	            0.005581	           -0.255695	            0.340527	           -0.137564	           -0.110893	           -0.323317	           -1.290055	           -0.051388	           -0.232311	            0.006130	           -0.833667	           -0.112711	           -0.009591	           -0.075387
            2.504000	            0.865580	            2.352273	           -2.009773	           -0.233013	            0.005581	           -0.255695	            0.290577	           -0.146542	           -0.189870	           -0.377019	            0.552933	           -0.514079	           -0.232311	            0.006130	           -0.833667	           -0.131496	           -0.009659	           -0.075379
            2.504500	            0.590651	            2.892623	           -1.915060	           -0.233013	            0.005581	           -0.255695	            0.192513	           -0.091385	           -0.163542	           -0.227062	           -2.025473	           -0.288697	           -0.232311	            0.006130	           -0.833667	           -0.244058	           -0.029643	            0.113104
            2.505000	            0.774772	            2.530948	           -1.641926	           -0.233013	            0.005581	           -0.255695	            0.237252	           -0.072634	           -0.193337	            0.002515	           -0.735422	           -0.331125	           -0.232311	            0.006130	           -0.833667	           -0.131693	            0.046990	           -0.056326
            2.505500	            0.408142	            2.530680	           -1.595159	           -0.233013	            0.005581	           -0.255695	            0.235625	           -0.036473	           -0.058431	           -0.091706	           -0.552783	           -0.001931	           -0.232311	            0.006130	           -0.833667	           -0.244277	            0.008840	           -0.075263
            2.506000	            0.408630	            2.349628	           -1.412509	           -0.233013	            0.005581	           -0.255695	            0.209057	           -0.054797	           -0.096033	            0.046809	            0.000504	           -0.093876	           -0.232311	            0.006130	           -0.833667	           -0.075176	            0.009181	            0.000066
            2.506500	            0.638417	            1.087223	           -1.280921	           -0.233013	            0.005581	           -0.255695	            0.260290	           -0.017623	           -0.104981	            0.004008	           -1.105057	            0.042986	           -0.232311	            0.006130	           -0.833667	           -0.018930	            0.037810	           -0.018707
            2.507000	            0.545802	            1.809644	           -1.598593	           -0.233013	            0.005581	           -0.255695	            0.179836	           -0.054988	           -0.033684	            0.050920	           -1.105390	            0.183750	           -0.232311	            0.006130	           -0.833667	           -0.150342	            0.009112	           -0.056453
            2.507500	            0.637734	            1.088403	           -1.556056	           -0.233013	            0.005581	           -0.255695	            0.197226	           -0.092076	            0.007645	           -0.370188	           -1.290057	           -0.098296	           -0.232311	            0.006130	           -0.833667	           -0.094206	            0.056982	           -0.169410
            2.508000	            0.500579	            0.907521	           -1.418920	           -0.233013	            0.005581	           -0.255695	            0.172463	           -0.128709	           -0.092299	           -0.372970	           -0.552459	           -0.377237	           -0.232311	            0.006130	           -0.833667	           -0.150411	            0.037201	            0.019049
            2.508500	            0.408711	            2.529697	           -1.365880	           -0.233013	            0.005581	           -0.255695	            0.113313	           -0.055136	           -0.020611	           -0.279873	           -0.368475	           -0.235835	           -0.232311	            0.006130	           -0.833667	           -0.093869	           -0.000810	            0.131991
            2.509000	            0.547153	            1.266685	           -1.096496	           -0.233013	            0.005581	           -0.255695	            0.140037	           -0.018246	            0.022986	           -0.324126	           -1.104735	           -0.379228	           -0.232311	            0.006130	           -0.833667	           -0.206630	           -0.009997	           -0.056496
            2.509500	            0.409510	            1.266855	           -1.142011	           -0.233013	            0.005581	           -0.255695	            0.104297	           -0.036563	           -0.039262	           -0.275926	           -1.473030	           -0.333634	           -0.232311	            0.006130	           -0.833667	           -0.075031	           -0.028697	            0.018781
            2.510000	            0.363832	            0.365517	           -1.145762	           -0.233013	            0.005581	           -0.255695	            0.048512	           -0.055001	           -0.059924	           -0.000685	            0.184316	           -0.046271	           -0.232311	            0.006130	           -0.833667	           -0.131566	            0.018431	            0.000123
            2.510500	            0.547366	            0.725691	           -1.052959	           -0.233013	            0.005581	           -0.255695	            0.138201	           -0.045572	           -0.071098	            0.052893	           -1.657668	            0.134851	           -0.232311	            0.006130	           -0.833667	            0.000138	           -0.046995	           -0.075569
            2.511000	            0.776530	            1.626867	           -1.003808	           -0.233013	            0.005581	           -0.255695	            0.135800	           -0.128817	           -0.024111	           -0.046891	            0.000166	           -0.093836	           -0.232311	            0.006130	           -0.833667	           -0.112923	            0.038009	           -0.169469
            2.511500	            0.547024	            0.726281	           -1.190527	           -0.233013	            0.005581	           -0.255695	            0.106861	           -0.110851	            0.060287	           -0.093200	           -0.183148	           -0.376042	           -0.232311	            0.006130	           -0.833667	           -0.150496	            0.056241	           -0.018584
            2.512000	            0.455746	            0.365142	           -1.054278	           -0.233013	            0.005581	           -0.255695	            0.025939	           -0.092094	           -0.018521	           -0.279229	           -0.552456	           -0.283420	           -0.232311	            0.006130	           -0.833667	           -0.113026	            0.075551	           -0.093933
            2.512500	            0.318459	            0.905322	           -0.914050	           -0.233013	            0.005581	           -0.255695	            0.057244	           -0.027443	           -0.024205	           -0.234455	            0.000828	           -0.469181	           -0.232311	            0.006130	           -0.833667	           -0.187913	            0.018160	            0.018998
            2.513000	            0.364937	            0.543817	           -0.686430	           -0.233013	            0.005581	           -0.255695	            0.028794	           -0.036421	           -0.078600	           -0.133342	           -2.025302	           -0.241808	           -0.232311	            0.006130	           -0.833667	           -0.225348	           -0.019787	            0.018879
            2.513500	            0.274000	            0.182088	           -0.412613	           -0.233013	            0.005581	           -0.255695	            0.186461	           -0.009096	            0.011220	           -0.091124	           -0.736262	           -0.190301	           -0.232311	            0.006130	           -0.833667	           -0.131480	           -0.009793	           -0.037678
            2.514000	            0.181970	            1.444127	           -0.452831	           -0.233013	            0.005581	           -0.255695	            0.131144	           -0.036638	           -0.049109	           -0.091706	           -0.552783	           -0.001931	           -0.232311	            0.006130	           -0.833667	           -0.131462	           -0.019111	           -0.075412
            2.514500	           -0.001579	            0.543353	           -0.593808	           -0.233013	            0.005581	           -0.255695	           -0.031282	           -0.055407	           -0.018977	           -0.044856	           -0.552614	           -0.001951	           -0.232311	            0.006130	           -0.833667	           -0.225423	           -0.009998	           -0.075339
            2.515000	           -0.047374	            0.903679	           -0.546292	           -0.233013	            0.005581	           -0.255695	            0.079064	           -0.046000	           -0.058775	           -0.046247	           -0.183815	           -0.141421	           -0.232311	            0.006130	           -0.833667	           -0.037794	            0.075083	            0.113387
            2.515500	            0.091312	            0.180873	           -0.137022	           -0.233013	            0.005581	           -0.255695	           -0.031869	           -0.046025	           -0.033811	           -0.093159	           -0.183482	           -0.282186	           -0.232311	            0.006130	           -0.833667	           -0.150384	            0.018632	           -0.075269
